<svg id="圖層_1" data-name="圖層 1" xmlns="http://www.w3.org/2000/svg" viewBox="0 0 75 71.5"><defs><style>.cls-1{fill:#231815;}</style></defs><title>MQTT_Black_logo</title><rect class="cls-1" x="15.77" y="7.78" width="1.17" height="4.23"/><rect class="cls-1" x="20.4" y="7.78" width="1.17" height="4.23"/><rect class="cls-1" x="25.03" y="7.78" width="1.17" height="4.23"/><rect class="cls-1" x="29.66" y="7.78" width="1.17" height="4.23"/><rect class="cls-1" x="34.29" y="7.78" width="1.17" height="4.23"/><rect class="cls-1" x="38.92" y="7.78" width="1.17" height="4.23"/><rect class="cls-1" x="43.55" y="7.78" width="1.17" height="4.23"/><rect class="cls-1" x="48.18" y="7.78" width="1.17" height="4.23"/><rect class="cls-1" x="52.81" y="7.78" width="1.17" height="4.23"/><rect class="cls-1" x="57.44" y="7.78" width="1.17" height="4.23"/><rect class="cls-1" x="61.25" y="14.75" width="4.23" height="1.17"/><rect class="cls-1" x="61.25" y="19.38" width="4.23" height="1.17"/><rect class="cls-1" x="61.25" y="24.01" width="4.23" height="1.17"/><rect class="cls-1" x="61.25" y="28.64" width="4.23" height="1.17"/><rect class="cls-1" x="61.25" y="33.27" width="4.23" height="1.17"/><rect class="cls-1" x="61.25" y="37.9" width="4.23" height="1.17"/><rect class="cls-1" x="61.25" y="42.53" width="4.23" height="1.17"/><rect class="cls-1" x="61.25" y="47.16" width="4.23" height="1.17"/><rect class="cls-1" x="61.25" y="51.79" width="4.23" height="1.17"/><rect class="cls-1" x="61.25" y="56.41" width="4.23" height="1.17"/><rect class="cls-1" x="9.53" y="14.02" width="4.23" height="1.17"/><rect class="cls-1" x="9.53" y="18.65" width="4.23" height="1.17"/><rect class="cls-1" x="9.53" y="23.28" width="4.23" height="1.17"/><rect class="cls-1" x="9.53" y="27.91" width="4.23" height="1.17"/><rect class="cls-1" x="9.53" y="32.54" width="4.23" height="1.17"/><rect class="cls-1" x="9.53" y="37.17" width="4.23" height="1.17"/><rect class="cls-1" x="9.53" y="41.8" width="4.23" height="1.17"/><rect class="cls-1" x="9.53" y="46.43" width="4.23" height="1.17"/><rect class="cls-1" x="9.53" y="51.06" width="4.23" height="1.17"/><rect class="cls-1" x="9.53" y="55.69" width="4.23" height="1.17"/><rect class="cls-1" x="16.5" y="59.5" width="1.17" height="4.23"/><rect class="cls-1" x="21.13" y="59.5" width="1.17" height="4.23"/><rect class="cls-1" x="25.76" y="59.5" width="1.17" height="4.23"/><rect class="cls-1" x="30.39" y="59.5" width="1.17" height="4.23"/><rect class="cls-1" x="35.02" y="59.5" width="1.17" height="4.23"/><rect class="cls-1" x="39.65" y="59.5" width="1.17" height="4.23"/><rect class="cls-1" x="44.27" y="59.5" width="1.17" height="4.23"/><rect class="cls-1" x="48.9" y="59.5" width="1.17" height="4.23"/><rect class="cls-1" x="53.53" y="59.5" width="1.17" height="4.23"/><rect class="cls-1" x="58.16" y="59.5" width="1.17" height="4.23"/><path class="cls-1" d="M25,19.94l-3.35,3.35V49l2.52,2.52H49.87l3.45-3.45V22.45L50.8,19.94Zm17.7,23.75a1.38,1.38,0,0,1-1,.41,1.41,1.41,0,0,1-.24,0L35.66,49.9l-.14,0L25.94,47.5l-2.6-9.65L30.2,31l5,1.11-7,7L29.46,44l4.74,1.2L40,39.36l-1.2-4.7-1.75-.33L31.43,40l.42,1.61,1.5.33,3-3a1.37,1.37,0,0,1,.34-1.34,1.45,1.45,0,1,1,.7,2.32l-3.54,3.54-3.12-.69-.84-3.25,6.73-6.73,3.39.64,1.63,6.37-7,7-6.35-1.6-1.61-6.54,5.68-5.68-1.69-.38-5.72,5.72,2.17,8,8.12,2,5.22-5.22a1.28,1.28,0,0,1,.33-1.38,1.39,1.39,0,0,1,2,2Zm2-6.09a1.38,1.38,0,0,1-1,.41h0a1.38,1.38,0,1,1,.32-2.72l2.84-2.84-1.2-4.74-4.92-1.22-3,3a1.37,1.37,0,0,1-.34,1.3,1.39,1.39,0,1,1-.67-2.31l3.6-3.6,6.54,1.61,1.6,6.35L45.09,36.3A1.37,1.37,0,0,1,44.75,37.6ZM45.6,40a1.39,1.39,0,1,1-1-1l5.48-5.48-2-8.12-8-2.17-5.58,5.58a1.37,1.37,0,0,1-.34,1.3,1.39,1.39,0,0,1-2-2,1.37,1.37,0,0,1,1.3-.35l6.16-6.16,9.65,2.6,2.4,9.72Z"/><path class="cls-1" d="M16.83,14.59V56.11H58.35V14.59ZM54.74,48.71,50.46,53H23.62l-3.36-3.36V22.69l4.19-4.19h27l3.35,3.35Z"/></svg>