<svg id="圖層_1" data-name="圖層 1" xmlns="http://www.w3.org/2000/svg" viewBox="0 0 296.39 81.33"><defs><style>.cls-1,.cls-2{fill:#231815;}.cls-2{font-size:7.1px;font-family:YuGothicUI-Semibold, Yu Gothic UI;font-weight:700;letter-spacing:0.9em;}.cls-3{letter-spacing:0.89em;}.cls-4{letter-spacing:0.88em;}</style></defs><title>MQTT_Black_logo</title><path class="cls-1" d="M123.21,49.38V32.21q0-2.37.24-6h-.15a31.05,31.05,0,0,1-.88,3.63l-7,19.5h-4.8l-7.07-19.32a38.16,38.16,0,0,1-.89-3.82h-.17q.24,3.56.24,7.14v16H97.31V21.09h8.77l6.1,17.09a20.58,20.58,0,0,1,1,4h.13q.57-2.32,1.17-4l6.12-17.06h8.53V49.38Z"/><path class="cls-1" d="M134,35.61a15.26,15.26,0,0,1,3.88-10.82,13.34,13.34,0,0,1,10.25-4.17,12.61,12.61,0,0,1,9.76,4A14.76,14.76,0,0,1,161.6,35a15.1,15.1,0,0,1-3.85,10.74l-.47.49,7.2,6.94h-8.93l-3.76-3.84a15.69,15.69,0,0,1-4.09.51,13,13,0,0,1-9.88-4A14.29,14.29,0,0,1,134,35.61Zm6.34-.33a10.85,10.85,0,0,0,2,6.75,6.48,6.48,0,0,0,5.46,2.62,6.62,6.62,0,0,0,5.52-2.51,10.64,10.64,0,0,0,2-6.75,11.43,11.43,0,0,0-1.92-7A6.36,6.36,0,0,0,148,25.84a6.67,6.67,0,0,0-5.58,2.63A10.81,10.81,0,0,0,140.34,35.28Z"/><path class="cls-1" d="M184.28,26h-8.07V49.38h-6V26h-8.05V21.09h22.17Z"/><path class="cls-1" d="M208.46,26h-8.07V49.38h-6V26h-8.05V21.09h22.17Z"/><path class="cls-1" d="M246.47,47.48a20.1,20.1,0,0,1-10.19,2.39q-6.76,0-10.67-3.8T221.7,35.68A14.51,14.51,0,0,1,226,24.81q4.3-4.19,11.33-4.19a22.32,22.32,0,0,1,7.91,1.28v5.72a15.71,15.71,0,0,0-8-1.92,8.73,8.73,0,0,0-6.63,2.67,9.77,9.77,0,0,0-2.54,7,9.82,9.82,0,0,0,2.29,6.92,8.09,8.09,0,0,0,6.25,2.48,8.8,8.8,0,0,0,3.85-.73V38.26h-5.72V33.42h11.74Z"/><path class="cls-1" d="M250.32,35.61a15.26,15.26,0,0,1,3.88-10.82,13.34,13.34,0,0,1,10.25-4.17,12.61,12.61,0,0,1,9.76,4A14.76,14.76,0,0,1,277.92,35a15.09,15.09,0,0,1-3.84,10.73,14.3,14.3,0,0,1-20,.13A14.29,14.29,0,0,1,250.32,35.61Zm6.34-.33a10.85,10.85,0,0,0,2,6.75,6.48,6.48,0,0,0,5.46,2.62,6.62,6.62,0,0,0,5.52-2.51,10.64,10.64,0,0,0,2-6.75,11.43,11.43,0,0,0-1.92-7,6.36,6.36,0,0,0-5.41-2.57,6.67,6.67,0,0,0-5.58,2.63A10.81,10.81,0,0,0,256.66,35.28Z"/><text class="cls-2" transform="translate(96.76 62.7)">NMKING TECHNO<tspan class="cls-3" x="141.86" y="0">L</tspan><tspan x="151.64" y="0">O</tspan><tspan class="cls-4" x="163.4" y="0">G</tspan><tspan x="174.56" y="0">Y</tspan></text><rect class="cls-1" x="20.83" y="12.69" width="1.17" height="4.23"/><rect class="cls-1" x="25.46" y="12.69" width="1.17" height="4.23"/><rect class="cls-1" x="30.09" y="12.69" width="1.17" height="4.23"/><rect class="cls-1" x="34.72" y="12.69" width="1.17" height="4.23"/><rect class="cls-1" x="39.35" y="12.69" width="1.17" height="4.23"/><rect class="cls-1" x="43.98" y="12.69" width="1.17" height="4.23"/><rect class="cls-1" x="48.61" y="12.69" width="1.17" height="4.23"/><rect class="cls-1" x="53.24" y="12.69" width="1.17" height="4.23"/><rect class="cls-1" x="57.87" y="12.69" width="1.17" height="4.23"/><rect class="cls-1" x="62.5" y="12.69" width="1.17" height="4.23"/><rect class="cls-1" x="66.3" y="19.66" width="4.23" height="1.17"/><rect class="cls-1" x="66.3" y="24.29" width="4.23" height="1.17"/><rect class="cls-1" x="66.3" y="28.92" width="4.23" height="1.17"/><rect class="cls-1" x="66.3" y="33.55" width="4.23" height="1.17"/><rect class="cls-1" x="66.3" y="38.18" width="4.23" height="1.17"/><rect class="cls-1" x="66.3" y="42.81" width="4.23" height="1.17"/><rect class="cls-1" x="66.3" y="47.44" width="4.23" height="1.17"/><rect class="cls-1" x="66.3" y="52.07" width="4.23" height="1.17"/><rect class="cls-1" x="66.3" y="56.7" width="4.23" height="1.17"/><rect class="cls-1" x="66.3" y="61.33" width="4.23" height="1.17"/><rect class="cls-1" x="14.59" y="18.94" width="4.23" height="1.17"/><rect class="cls-1" x="14.59" y="23.57" width="4.23" height="1.17"/><rect class="cls-1" x="14.59" y="28.2" width="4.23" height="1.17"/><rect class="cls-1" x="14.59" y="32.83" width="4.23" height="1.17"/><rect class="cls-1" x="14.59" y="37.46" width="4.23" height="1.17"/><rect class="cls-1" x="14.59" y="42.09" width="4.23" height="1.17"/><rect class="cls-1" x="14.59" y="46.72" width="4.23" height="1.17"/><rect class="cls-1" x="14.59" y="51.35" width="4.23" height="1.17"/><rect class="cls-1" x="14.59" y="55.98" width="4.23" height="1.17"/><rect class="cls-1" x="14.59" y="60.61" width="4.23" height="1.17"/><rect class="cls-1" x="21.56" y="64.41" width="1.17" height="4.23"/><rect class="cls-1" x="26.19" y="64.41" width="1.17" height="4.23"/><rect class="cls-1" x="30.82" y="64.41" width="1.17" height="4.23"/><rect class="cls-1" x="35.45" y="64.41" width="1.17" height="4.23"/><rect class="cls-1" x="40.08" y="64.41" width="1.17" height="4.23"/><rect class="cls-1" x="44.7" y="64.41" width="1.17" height="4.23"/><rect class="cls-1" x="49.33" y="64.41" width="1.17" height="4.23"/><rect class="cls-1" x="53.96" y="64.41" width="1.17" height="4.23"/><rect class="cls-1" x="58.59" y="64.41" width="1.17" height="4.23"/><rect class="cls-1" x="63.22" y="64.41" width="1.17" height="4.23"/><path class="cls-1" d="M30.09,24.85,26.74,28.2V54l2.52,2.52H54.93L58.37,53V27.36l-2.51-2.51ZM47.79,48.6a1.38,1.38,0,0,1-1,.41,1.41,1.41,0,0,1-.24,0l-5.85,5.85-.14,0L31,52.42l-2.6-9.65,6.86-6.86,5,1.11-7,7,1.22,4.92,4.74,1.2,5.81-5.81-1.2-4.7-1.75-.33-5.62,5.62.42,1.61,1.5.33,3-3a1.37,1.37,0,0,1,.34-1.34,1.45,1.45,0,1,1,.7,2.32l-3.54,3.54-3.12-.69-.84-3.25,6.73-6.73,3.39.64,1.63,6.37-7,7-6.35-1.6-1.61-6.54,5.68-5.68-1.69-.38L30,43.19l2.17,8,8.12,2L45.5,48a1.28,1.28,0,0,1,.33-1.38,1.39,1.39,0,1,1,2,2Zm2-6.09a1.38,1.38,0,0,1-1,.41h0a1.38,1.38,0,1,1,.32-2.72L52,37.36l-1.2-4.74-4.92-1.22-3,3a1.37,1.37,0,0,1-.34,1.3,1.39,1.39,0,1,1-.67-2.31l3.6-3.6L52,31.44l1.6,6.35-3.41,3.41A1.37,1.37,0,0,1,49.81,42.51Zm.85,2.36a1.39,1.39,0,1,1-1-1l5.48-5.48-2-8.12-8-2.17-5.58,5.58a1.37,1.37,0,0,1-.34,1.3,1.39,1.39,0,0,1-2-2,1.37,1.37,0,0,1,1.3-.35l6.16-6.16,9.65,2.6,2.4,9.72Z"/><path class="cls-1" d="M21.89,19.5V61H63.41V19.5ZM59.8,53.63l-4.28,4.28H28.68l-3.36-3.36V27.61l4.19-4.19h27l3.35,3.35Z"/></svg>