<?xml version="1.0" encoding="utf-8"?>
<!-- Generator: Adobe Illustrator 21.0.2, SVG Export Plug-In . SVG Version: 6.00 Build 0)  -->
<svg version="1.1" id="Logos" xmlns="http://www.w3.org/2000/svg" xmlns:xlink="http://www.w3.org/1999/xlink" x="0px" y="0px"
	 viewBox="0 0 1139.8 275.5" style="enable-background:new 0 0 1139.8 275.5;" xml:space="preserve">
<style type="text/css">
	.st0{fill:#221714;}
	.st1{fill:#E0B239;}
</style>
<title>NMKING-logo</title>
<g>
	<path class="st0" d="M403.3,212.1h-6.7v20h-3.9v-20h-6.7v-3.3h17.2V212.1z"/>
	<path class="st0" d="M468.5,232.1h-13.1v-23.3H468v3.3h-8.7v6.6h8v3.3h-8v6.9h9.2L468.5,232.1z"/>
	<path class="st0" d="M538.1,231.2c-2,1-4.3,1.4-6.5,1.4c-3.4,0-6.1-1.1-8.1-3.2c-2-2.1-3.1-4.9-3.1-8.4c0-3.7,1.1-6.8,3.4-9
		c2.3-2.3,5.4-3.5,8.7-3.4c1.9-0.1,3.8,0.3,5.6,1v3.8c-1.6-0.9-3.4-1.4-5.2-1.4c-2.3-0.1-4.5,0.8-6.1,2.4c-1.6,1.8-2.5,4.1-2.3,6.5
		c-0.1,2.3,0.7,4.5,2.2,6.1c1.5,1.5,3.6,2.4,5.8,2.3c2,0.1,4-0.5,5.7-1.6L538.1,231.2z"/>
	<path class="st0" d="M605.9,232.1H602V222h-11v10.1h-3.9v-23.3h3.9v9.8h11v-9.8h3.9L605.9,232.1z"/>
	<path class="st0" d="M673.6,232.1h-4.2L658.3,215c-0.3-0.4-0.5-0.9-0.7-1.3h-0.1c0.1,1.1,0.2,2.1,0.1,3.2v15.3h-3.7v-23.3h4.5
		l10.8,16.7c0.5,0.7,0.7,1.2,0.9,1.4h0.1c-0.1-1-0.2-2.1-0.2-3.1v-15h3.7L673.6,232.1z"/>
	<path class="st0" d="M730.9,232.5c-3.4,0-6-1.1-8.1-3.3c-2-2.2-3-5-3-8.5c0-3.7,1-6.7,3.1-9c2.1-2.2,4.8-3.3,8.4-3.3
		c3-0.1,5.9,1.1,7.9,3.2c2,2.2,3,5,3,8.5c0,3.8-1,6.8-3.1,9C737.1,231.4,734.3,232.5,730.9,232.5z M731.1,211.8
		c-2-0.1-3.9,0.8-5.2,2.4c-1.4,1.8-2.1,4-2,6.3c-0.1,2.2,0.6,4.5,1.9,6.3c1.2,1.5,3.1,2.4,5.1,2.4c2,0.1,4-0.7,5.3-2.3
		c1.3-1.5,1.9-3.6,1.9-6.3c0-2.8-0.6-4.9-1.9-6.4C735,212.6,733.1,211.7,731.1,211.8L731.1,211.8z"/>
	<path class="st0" d="M804.7,232.1h-12.9v-23.3h3.9v20h9L804.7,232.1z"/>
	<path class="st0" d="M865.4,232.5c-3.4,0-6-1.1-8.1-3.3c-2-2.2-3-5-3-8.5c0-3.7,1-6.7,3.1-9c2.1-2.2,4.8-3.3,8.4-3.3
		c3-0.1,5.9,1.1,7.9,3.2c2,2.2,3,5,3,8.5c0,3.8-1,6.8-3.1,9C871.6,231.4,868.8,232.5,865.4,232.5z M865.6,211.8
		c-2-0.1-3.9,0.8-5.2,2.4c-1.4,1.8-2.1,4-2,6.3c-0.1,2.2,0.6,4.5,1.9,6.3c1.2,1.5,3.1,2.4,5.1,2.4c2,0.1,4-0.7,5.3-2.3
		c1.3-1.5,1.9-3.6,1.9-6.3c0-2.8-0.6-4.9-1.9-6.4C869.5,212.6,867.6,211.7,865.6,211.8L865.6,211.8z"/>
	<path class="st0" d="M942.6,230.5c-2.5,1.3-5.3,2-8.1,2c-3.1,0.1-6.1-1-8.4-3.2c-2.1-2.1-3.2-5-3.2-8.5c-0.1-3.3,1.2-6.5,3.5-8.9
		c2.4-2.3,5.6-3.6,8.9-3.5c2.2-0.1,4.5,0.3,6.5,1.1v4c-1.9-1.2-4.1-1.8-6.4-1.8c-2.3-0.1-4.5,0.8-6.1,2.5c-1.6,1.7-2.5,4-2.4,6.3
		c0,2.7,0.7,4.8,2,6.3c1.4,1.6,3.5,2.4,5.6,2.3c1.4,0,2.9-0.3,4.2-0.9v-5.5h-4.9v-3.2h8.8V230.5z"/>
	<path class="st0" d="M1009.5,208.8l-7.6,14.8v8.4H998v-8.3l-7.4-14.9h4.4l4.6,10c0.1,0.1,0.2,0.6,0.5,1.3h0
		c0.1-0.5,0.3-0.9,0.5-1.3l4.8-10L1009.5,208.8z"/>
	<rect x="35.8" y="33.9" class="st0" width="203.7" height="203.7"/>
	<path class="st1" d="M68.6,84.3c0,3.1,2.5,5.7,5.7,5.7c3.1,0,5.7-2.5,5.7-5.7s-2.5-5.7-5.7-5.7l0,0c-0.7,0-1.4,0.2-2,0.4l-6.9-6.9
		l5.2-16.9l32,18.4h69.4l36.2-18.2l1.8,16.6l-7,7c-0.6-0.2-1.2-0.4-1.9-0.4c-3.1,0-5.7,2.6-5.7,5.7c0,3.1,2.6,5.7,5.7,5.7
		c3.1,0,5.7-2.6,5.7-5.7c0-0.8-0.2-1.5-0.4-2.2l8.4-8.4l-2.8-25.4L171.4,69h-67.6L68,48.4l-7.8,25l8.8,8.8
		C68.8,82.9,68.6,83.6,68.6,84.3z"/>
	<path class="st1" d="M160.9,202c-1.5,0-3,0.6-4,1.7l-16.9-6.5v-10l25.7-17.8v-29.1l37.7-28.2c2.9,1.3,6.2,0,7.5-2.9
		c1.3-2.9,0-6.2-2.9-7.5s-6.2,0-7.5,2.9c-0.3,0.7-0.5,1.5-0.5,2.3c0,0.6,0.1,1.2,0.3,1.7l-34.6,25.9v-7l15.1-14.7
		c3,1.3,6.5-0.1,7.8-3.1c1.3-3-0.1-6.5-3.1-7.8c-3-1.3-6.5,0.1-7.8,3.1c-0.6,1.4-0.6,3-0.1,4.5l-16.5,16v12.3l0,0V166h-46.8v-25.5
		l0.4-0.5l-0.4-0.3v-13.8l-16.9-17.3c0.4-0.8,0.6-1.7,0.6-2.6c0-3.5-2.8-6.4-6.3-6.4c-3.5,0-6.4,2.8-6.4,6.3c0,3.5,2.8,6.4,6.3,6.4
		c0.9,0,1.7-0.2,2.5-0.5l15.6,15.9v8.5l-33.3-24.7c0.1-0.4,0.2-0.8,0.2-1.2c0-3.1-2.5-5.7-5.7-5.7c-3.1,0-5.7,2.5-5.7,5.7
		c0,3.1,2.5,5.7,5.7,5.7c1,0,1.9-0.3,2.7-0.8l36,26.7v27.6l25.7,17.8v10l-16.9,6.5c-2.2-2.3-5.8-2.4-8.1-0.2
		c-2.3,2.2-2.4,5.8-0.2,8.1s5.8,2.4,8.1,0.2c1-1,1.7-2.3,1.7-3.8l17.7-6.7l17.6,6.7c0.2,3.1,2.8,5.5,6,5.3c3.1-0.2,5.5-2.8,5.3-6
		C166.5,204.4,164,202,160.9,202L160.9,202z M137.7,183.3l-18.4-12.7H156L137.7,183.3z"/>
	<path class="st1" d="M206.3,130.4c-3.1,0-5.7,2.6-5.7,5.7c0,2.2,1.3,4.3,3.4,5.2v29.4l-22.6,21c-2.9-1.2-6.2,0.1-7.5,3
		s0.1,6.2,3,7.5c2.9,1.2,6.2-0.1,7.5-3c0.3-0.7,0.5-1.5,0.5-2.2c0-0.6-0.1-1.2-0.4-1.8l24.1-22.5v-31.3c2.9-1.3,4.2-4.6,2.9-7.5
		C210.5,131.7,208.5,130.4,206.3,130.4L206.3,130.4z"/>
	<path class="st1" d="M189.8,166.6v-14.9c2.9-1.3,4.2-4.6,2.9-7.5s-4.6-4.2-7.5-2.9s-4.2,4.6-2.9,7.5c0.6,1.3,1.6,2.3,2.9,2.9v12.8
		l-16.8,15.1c-0.7-0.3-1.5-0.5-2.3-0.5c-3.1,0-5.7,2.5-5.7,5.7s2.5,5.7,5.7,5.7s5.7-2.5,5.7-5.7c0-0.6-0.1-1.2-0.3-1.7L189.8,166.6z
		"/>
	<path class="st1" d="M114.9,184.8c0-3.1-2.5-5.7-5.7-5.7h0c-0.8,0-1.6,0.2-2.3,0.5l-16.7-15.1v-12.8c2.9-1.3,4.2-4.6,2.9-7.5
		s-4.6-4.2-7.5-2.9c-2.9,1.3-4.2,4.6-2.9,7.5c0.6,1.3,1.6,2.3,2.9,2.9v14.9l18.3,16.5c-0.2,0.6-0.3,1.1-0.3,1.7
		c0,3.1,2.5,5.7,5.7,5.7C112.3,190.5,114.9,188,114.9,184.8C114.9,184.8,114.9,184.8,114.9,184.8L114.9,184.8z"/>
	<path class="st1" d="M96.2,191.2c-0.8,0-1.5,0.2-2.2,0.5l-22.5-21v-29.4c2.9-1.3,4.2-4.6,2.9-7.5s-4.6-4.2-7.5-2.9
		c-2.9,1.3-4.2,4.6-2.9,7.5c0.6,1.3,1.6,2.3,2.9,2.9v31.3l24,22.4c-0.2,0.6-0.3,1.2-0.4,1.8c0,3.1,2.5,5.7,5.7,5.7s5.7-2.5,5.7-5.7
		C101.9,193.7,99.3,191.2,96.2,191.2L96.2,191.2z"/>
	<path class="st1" d="M176.3,93.9c3.1,0,5.7-2.5,5.7-5.7c0-3.1-2.5-5.7-5.7-5.7c0,0,0,0,0,0c-1,0-1.9,0.3-2.7,0.8l-4.9-3.7h-59.3
		l-6.2,4.7c-0.8-0.5-1.7-0.8-2.7-0.8c-3.1,0-5.7,2.5-5.7,5.7c0,3.1,2.5,5.7,5.7,5.7c3.1,0,5.7-2.5,5.7-5.7c0-0.4-0.1-0.8-0.2-1.2
		l5-3.8h24.5v8.4h-20l-4.1,3.1c-0.8-0.5-1.7-0.8-2.7-0.8c-3.1,0-5.7,2.5-5.7,5.7c0,3.1,2.5,5.7,5.7,5.7c3.1,0,5.7-2.5,5.7-5.7
		c0-0.4-0.1-0.8-0.2-1.2l2.9-2.2h18.4v8h-10.4l-2.7,1.9c-0.9-0.5-1.8-0.9-2.8-0.9c-3.1,0-5.7,2.5-5.7,5.7c0,3.1,2.5,5.7,5.7,5.7
		c3.1,0,5.7-2.5,5.7-5.7c0-0.4-0.1-0.7-0.2-1l1.5-1.1h24.2l1.7,1.4c-0.2,0.5-0.3,1-0.3,1.5c0,3.1,2.5,5.7,5.7,5.7
		c3.1,0,5.7-2.5,5.7-5.7c0-3.1-2.5-5.7-5.7-5.7c-0.9,0-1.7,0.2-2.5,0.6l-2.9-2.5h-12.4v-8h20.7l1.9,1.5c-0.2,0.4-0.2,0.9-0.3,1.4
		c0,3.1,2.5,5.7,5.7,5.7c3.1,0,5.7-2.5,5.7-5.7c0-3.1-2.5-5.7-5.7-5.7c-0.9,0-1.8,0.3-2.6,0.7l-3.2-2.4h-22.2v-8.4h27.1l3.7,2.8
		c-0.1,0.4-0.2,0.8-0.2,1.2C170.6,91.4,173.2,93.9,176.3,93.9z"/>
	<circle class="st1" cx="137.8" cy="123.7" r="5.7"/>
	<rect x="30.6" y="0.5" class="st0" width="5.7" height="20.7"/>
	<rect x="53.3" y="0.5" class="st0" width="5.7" height="20.7"/>
	<rect x="76.1" y="0.5" class="st0" width="5.7" height="20.7"/>
	<rect x="98.8" y="0.5" class="st0" width="5.7" height="20.7"/>
	<rect x="121.5" y="0.5" class="st0" width="5.7" height="20.7"/>
	<rect x="144.2" y="0.5" class="st0" width="5.7" height="20.7"/>
	<rect x="166.9" y="0.5" class="st0" width="5.7" height="20.7"/>
	<rect x="189.6" y="0.5" class="st0" width="5.7" height="20.7"/>
	<rect x="212.3" y="0.5" class="st0" width="5.7" height="20.7"/>
	<rect x="235" y="0.5" class="st0" width="5.7" height="20.7"/>
	<rect x="253.7" y="34.7" class="st0" width="20.7" height="5.7"/>
	<rect x="253.7" y="57.4" class="st0" width="20.7" height="5.7"/>
	<rect x="253.7" y="80.1" class="st0" width="20.7" height="5.7"/>
	<rect x="253.7" y="102.9" class="st0" width="20.7" height="5.7"/>
	<rect x="253.7" y="125.6" class="st0" width="20.7" height="5.7"/>
	<rect x="253.7" y="148.3" class="st0" width="20.7" height="5.7"/>
	<rect x="253.7" y="171" class="st0" width="20.7" height="5.7"/>
	<rect x="253.7" y="193.7" class="st0" width="20.7" height="5.7"/>
	<rect x="253.7" y="216.4" class="st0" width="20.7" height="5.7"/>
	<rect x="253.7" y="239.1" class="st0" width="20.7" height="5.7"/>
	<rect y="31.2" class="st0" width="20.7" height="5.7"/>
	<rect y="53.9" class="st0" width="20.7" height="5.7"/>
	<rect y="76.6" class="st0" width="20.7" height="5.7"/>
	<rect y="99.3" class="st0" width="20.7" height="5.7"/>
	<rect y="122" class="st0" width="20.7" height="5.7"/>
	<rect y="144.7" class="st0" width="20.7" height="5.7"/>
	<rect y="167.4" class="st0" width="20.7" height="5.7"/>
	<rect y="190.1" class="st0" width="20.7" height="5.7"/>
	<rect y="212.9" class="st0" width="20.7" height="5.7"/>
	<rect y="235.6" class="st0" width="20.7" height="5.7"/>
	<rect x="34.2" y="254.2" class="st0" width="5.7" height="20.7"/>
	<rect x="56.9" y="254.2" class="st0" width="5.7" height="20.7"/>
	<rect x="79.6" y="254.2" class="st0" width="5.7" height="20.7"/>
	<rect x="102.3" y="254.2" class="st0" width="5.7" height="20.7"/>
	<rect x="125" y="254.2" class="st0" width="5.7" height="20.7"/>
	<rect x="147.7" y="254.2" class="st0" width="5.7" height="20.7"/>
	<rect x="170.5" y="254.2" class="st0" width="5.7" height="20.7"/>
	<rect x="193.2" y="254.2" class="st0" width="5.7" height="20.7"/>
	<rect x="215.9" y="254.2" class="st0" width="5.7" height="20.7"/>
	<rect x="238.6" y="254.2" class="st0" width="5.7" height="20.7"/>
	<g>
		<path class="st0" d="M512.2,184.5h-30.9l-60.1-91.7c-3.1-4.8-5.4-8.6-6.8-11.5h-0.5c0.5,4.9,0.8,12.4,0.8,22.6v80.7h-28.7V42.7h33
			l57.9,89.2c3.8,5.9,6.2,9.7,7,11.3h0.5c-0.6-3.4-0.9-9.9-0.9-19.6V42.7h28.7V184.5z"/>
		<path class="st0" d="M675,184.5V98.4c0-7.9,0.4-17.9,1.2-29.9h-0.7c-1.8,9.1-3.3,15.2-4.4,18.2l-35,97.8H612l-35.4-96.9
			c-0.9-2.3-2.4-8.7-4.5-19.1h-0.8c0.8,11.9,1.2,23.8,1.2,35.8v80.2h-27.3V42.7h43.9l30.6,85.7c2.6,7.1,4.3,13.7,5.2,20h0.6
			c1.9-7.8,3.8-14.5,5.9-20.1l30.7-85.5h42.8v141.8H675z"/>
		<path class="st0" d="M853.6,184.5h-38.3l-42.9-62c-1.1-1.6-2.4-4.1-3.8-7.4h-0.5v69.4H738V42.7h30.2v67h0.5c1.3-2.9,2.7-5.5,4-7.6
			l40.7-59.4h36.1l-50.7,67.7L853.6,184.5z"/>
		<path class="st0" d="M862.3,50.5c0-4.5,1.6-8.2,4.8-11c3.2-2.8,7.3-4.3,12.3-4.3c5.1,0,9.3,1.5,12.5,4.3c3.2,2.9,4.8,6.5,4.8,10.9
			c0,4.5-1.6,8.2-4.9,11.1c-3.2,3-7.4,4.4-12.4,4.4c-4.9,0-9-1.5-12.3-4.5C863.9,58.6,862.3,54.9,862.3,50.5z M864.5,184.5V83.2H894
			v101.3H864.5z"/>
		<path class="st0" d="M1016.7,184.5h-29.4V128c0-16.4-5.9-24.5-17.7-24.5c-5.6,0-10.3,2.2-14,6.5c-3.7,4.4-5.6,9.9-5.6,16.7v57.8
			h-29.6V83.2H950v16.1h0.4c7.4-12.4,18.3-18.6,32.6-18.6c22.5,0,33.7,13.9,33.7,41.8V184.5z"/>
		<path class="st0" d="M1139.8,173.3c0,18.8-5.4,33.3-16.1,43.4c-10.7,10.2-26.1,15.2-46.3,15.2c-13.7,0-24.5-2-32.6-5.9v-25.3
			c10.5,6.1,21.1,9.2,31.8,9.2c10.6,0,18.8-2.8,24.8-8.5c6-5.6,8.9-13.5,8.9-23.5v-8.4h-0.5c-7.1,11.5-17.8,17.3-31.9,17.3
			c-12.8,0-23-4.5-30.6-13.6c-7.7-9.1-11.5-21.3-11.5-36.5c0-17,4.2-30.6,12.7-40.8c8.5-10.2,19.5-15.2,33.3-15.2
			c12.5,0,21.8,4.9,28,14.6h0.5V83.2h29.5V173.3z M1110.6,127.4c0-6.7-2-12.4-6.1-17c-4.1-4.6-9.2-6.9-15.3-6.9
			c-7.2,0-12.9,2.8-17.1,8.5c-4.2,5.6-6.3,13.6-6.3,23.8c0,8.9,2,15.8,6,20.9c4,5.1,9.4,7.6,16,7.6c6.7,0,12.2-2.6,16.4-7.8
			c4.2-5.2,6.3-11.9,6.3-20.2V127.4z"/>
	</g>
</g>
</svg>
